<?xml version="1.0" encoding="UTF-8"?><svg id="Calque_2" xmlns="http://www.w3.org/2000/svg" viewBox="0 0 57.48 57.2"><g id="Calque_1-2"><path d="M13.24,33.49s3.7-3.27,7.62-2.99c5.06.37,8.79,5.6,15.03,5.69,7.13.1,11.29-5.48,11.29-5.48,0,0-2.44,2.57-9.38,2.13-7.61-.49-12.02-5.76-17.95-6.16-5.46-.37-9.48,3.95-9.48,3.95l2.87,2.87Z" style="fill:#120e0b;"/><path d="M17.35,37.63s1.95-1.63,3.97-1.4c3.39.39,6.1,4.66,10.33,5.26,4.54.64,9.53-4.86,9.53-4.86,0,0-2.2,1.98-7.13,1.46-5.3-.55-8.56-5.3-12.87-5.61-3.22-.23-6.28,2.63-6.28,2.63l2.45,2.51Z" style="fill:#120e0b;"/><path d="M19.21,39.48s1.06-1.08,2.48-.89c2.39.33,5.03,4.34,8.13,4.94,3.74.72,5.7-1.15,5.7-1.15l-4.66,4.67c-1.19,1.37-2.87,1.23-4.22-.1l-7.43-7.48Z" style="fill:#120e0b;"/><path d="M27.63,27.42s-6.37-8.8-17.29-9.6v10.01c8.66-7.16,17.29-.41,17.29-.41Z" style="fill:#120e0b;"/><path d="M30.51,28.72s9.56,4.91,16.77-.1v-10.07c-3.65,8.1-16.77,10.17-16.77,10.17Z" style="fill:#120e0b;"/><path d="M29.05,28s6.97-8.68,5.04-14.51h-9.19c7.54,6,4.15,14.51,4.15,14.51" style="fill:#120e0b;"/><path d="M28.46,27.75s1.07-9.6-7.83-14.27h-10.29c16.61,6,18.12,14.27,18.12,14.27" style="fill:#120e0b;"/><path d="M29.76,28.33s12.97-2.98,17.52-14.84h-9.47c.86,5.84-8.06,14.84-8.06,14.84" style="fill:#120e0b;"/><rect x="16.37" y="51.88" width="24.77" height="5.32" style="fill:#120e0b;"/><rect y="48.16" width="16.36" height="5.33" style="fill:#120e0b;"/><rect x="41.12" y="48.16" width="16.36" height="5.33" style="fill:#120e0b;"/><rect x="37.51" width="9.68" height="9.7" style="fill:#120e0b;"/><rect x="10.29" width="9.67" height="9.7" style="fill:#120e0b;"/><rect x="23.91" width="9.68" height="9.7" style="fill:#120e0b;"/></g></svg>